# xmcd
#
# Track frame offsets:
#	150
#	17753
#	34682
#	54403
#	71805
#	86818
#	102008
#	117493
#	131727
#	147409
#	164455
#	176980
#	192826
#	206219
#	224556
#	243285
#	255267
#	268359
#	285998
#
# Disc length: 4013 seconds
#
# Revision: 0
# Processed by: cddbd v1.5.2PL0 Copyright (c) Steve Scherf et al.
# Submitted via: EasyCDDAExtractor 11.5.0.1
#
DISCID=290fab13
DTITLE=Various Artist - NCT 092
DYEAR=2006
DGENRE=Country
TTITLE0=Keith Urban - Stupid Boy
TTITLE1=Dierks Bentley - Long Trip Alone
TTITLE2=Martina McBride - Anyway
TTITLE3=Jack Ingram - Lips Of An Angel
TTITLE4=Pirates Of The Mississippi - Kickin' Up Dust
TTITLE5=John Mellencamp - Our Country
TTITLE6=Tom Wurth - Bread On The Table
TTITLE7=Miranda Lambert - Crazy Ex-Girlfriend
TTITLE8=Cody McCarver - Red Flag
TTITLE9=Cross Canadian Ragweed - Late Last Night
TTITLE10=Donovan Chapman - House Like That
TTITLE11=Ryan Bales Band - Heartbreaker
TTITLE12=Dean Martin and Martina McBride - Baby, It's Cold Outside
TTITLE13=Brad Paisley - Born On Christmas Day
TTITLE14=Pirates Of The Mississippi - A Snowman In Birmingham
TTITLE15=LeAnn Rimes - Rockin' Around The Christmas Tree
TTITLE16=Wynonna - Santa Claus Is Coming To Town
TTITLE17=Rascal Flatts - God Rest Ye Merry Gentlemen
TTITLE18=Sonny Burgess - (The Stars Haven't Changed Since) The Night When He C
TTITLE18=ame
EXTD=
EXTT0=
EXTT1=
EXTT2=
EXTT3=
EXTT4=
EXTT5=
EXTT6=
EXTT7=
EXTT8=
EXTT9=
EXTT10=
EXTT11=
EXTT12=
EXTT13=
EXTT14=
EXTT15=
EXTT16=
EXTT17=
EXTT18=
PLAYORDER=
